<?xml version="1.0" standalone="no"?>
<!DOCTYPE svg PUBLIC "-//W3C//DTD SVG 20010904//EN"
 "http://www.w3.org/TR/2001/REC-SVG-20010904/DTD/svg10.dtd">
<svg version="1.0" xmlns="http://www.w3.org/2000/svg"
 width="1800.000000pt" height="600.000000pt" viewBox="0 0 1800.000000 600.000000"
 preserveAspectRatio="xMidYMid meet">
<g transform="translate(0.000000,600.000000) scale(0.100000,-0.100000)"
fill="#000000" stroke="none">
<path d="M12110 4409 c-14 -6 -51 -15 -83 -20 -33 -5 -69 -16 -80 -23 -12 -8
-36 -17 -54 -21 -17 -3 -37 -13 -44 -21 -6 -8 -16 -14 -22 -14 -21 0 -145 -91
-208 -153 -78 -76 -181 -228 -230 -337 -6 -14 -17 -36 -24 -50 -7 -14 -16 -41
-20 -60 -4 -19 -13 -44 -21 -55 -7 -11 -16 -38 -20 -60 -3 -22 -12 -51 -19
-65 -7 -14 -16 -58 -20 -99 -4 -41 -14 -90 -23 -110 -21 -48 -23 -658 -3 -706
7 -16 19 -70 26 -120 14 -96 46 -217 63 -237 5 -7 13 -29 17 -48 4 -19 13 -46
20 -60 7 -14 18 -36 24 -50 6 -14 22 -43 36 -65 13 -22 28 -50 34 -62 49 -107
251 -308 355 -354 12 -5 28 -13 36 -18 34 -21 108 -51 140 -57 19 -3 53 -13
75 -21 56 -22 358 -22 401 -1 16 9 47 19 69 23 76 13 234 98 309 165 83 74
104 97 152 160 27 36 51 67 54 70 3 3 20 34 39 70 18 36 40 79 49 95 32 63 40
81 46 112 4 17 16 48 27 69 10 21 19 49 19 61 0 13 7 39 15 59 23 56 38 153
25 169 -8 9 -57 14 -178 18 -92 3 -178 7 -191 9 -36 5 -60 -36 -72 -123 -6
-41 -16 -85 -23 -99 -8 -14 -17 -43 -21 -65 -3 -22 -13 -47 -20 -55 -7 -8 -16
-26 -20 -39 -34 -110 -176 -242 -315 -291 -117 -41 -334 -23 -409 34 -7 6 -21
15 -30 21 -64 39 -82 55 -128 113 -29 36 -68 100 -88 141 -20 42 -43 89 -51
104 -8 16 -14 37 -14 47 0 10 -9 46 -19 81 -22 73 -63 455 -56 521 3 24 12
126 21 228 9 102 22 196 29 210 7 14 15 43 19 65 7 43 25 92 62 170 13 28 24
54 24 59 0 4 18 31 40 58 22 28 40 54 40 57 0 4 18 20 41 37 22 16 52 39 66
52 14 12 31 22 36 22 6 0 18 6 26 14 26 22 172 56 240 56 98 0 232 -51 303
-115 47 -41 128 -143 128 -159 0 -8 6 -19 14 -25 8 -7 18 -27 22 -44 3 -17 12
-41 20 -52 7 -11 16 -38 20 -60 3 -22 13 -52 20 -67 8 -15 14 -42 14 -60 0
-61 0 -61 186 -53 272 12 284 17 246 102 -11 26 -24 67 -27 90 -4 24 -11 45
-15 48 -5 3 -16 30 -24 60 -9 30 -21 57 -26 60 -6 3 -10 13 -10 22 0 21 -52
126 -66 135 -7 4 -15 20 -18 34 -8 29 -35 69 -83 123 -18 20 -33 39 -33 43 0
26 -223 208 -255 208 -5 0 -16 6 -24 13 -9 7 -41 23 -71 35 -52 20 -90 30
-200 52 -61 12 -259 11 -290 -1z"/>
<path d="M14330 4409 c-185 -35 -228 -48 -316 -90 -22 -10 -46 -19 -52 -19 -7
0 -12 -5 -12 -10 0 -6 -8 -14 -17 -17 -126 -47 -324 -291 -349 -431 -4 -20
-13 -49 -20 -64 -10 -19 -14 -69 -14 -173 0 -104 4 -154 14 -173 7 -15 17 -45
21 -67 3 -22 13 -47 20 -55 7 -8 16 -26 20 -40 9 -31 65 -102 124 -158 48 -45
187 -140 231 -158 8 -4 38 -17 67 -30 28 -13 60 -24 71 -24 11 0 25 -6 31 -14
7 -8 31 -17 54 -21 23 -4 51 -13 62 -20 11 -7 41 -16 65 -20 25 -4 56 -13 70
-20 14 -7 45 -16 70 -20 25 -4 54 -13 65 -19 11 -7 38 -16 60 -20 22 -4 49
-13 60 -20 11 -7 36 -16 56 -20 21 -3 42 -13 49 -21 7 -8 18 -15 26 -15 17 0
50 -15 99 -45 22 -13 50 -28 61 -34 42 -19 124 -121 124 -153 0 -8 7 -32 15
-51 19 -45 19 -127 2 -170 -8 -18 -17 -49 -21 -69 -4 -21 -11 -38 -17 -38 -5
0 -14 -11 -19 -24 -9 -25 -103 -106 -123 -106 -6 0 -18 -6 -26 -13 -58 -49
-444 -80 -511 -42 -14 8 -36 15 -50 15 -14 0 -36 7 -50 15 -14 8 -36 19 -49
25 -41 18 -142 103 -157 132 -8 15 -18 28 -23 28 -13 0 -90 161 -100 210 -6
25 -14 63 -20 85 -6 22 -11 61 -11 86 0 62 -11 69 -90 59 -36 -5 -123 -14
-195 -20 -151 -14 -161 -19 -142 -76 8 -21 17 -67 20 -102 4 -34 13 -75 21
-90 7 -15 17 -45 21 -67 4 -22 12 -51 19 -65 7 -14 26 -52 42 -85 85 -175 260
-360 417 -440 32 -17 68 -36 80 -42 12 -7 30 -13 40 -13 10 0 28 -6 40 -14 12
-8 40 -17 62 -21 22 -3 60 -13 85 -22 64 -22 378 -22 435 0 22 9 62 18 90 22
27 4 58 13 69 21 11 8 27 14 36 14 8 0 38 12 65 25 28 14 56 25 63 25 6 0 12
5 12 10 0 6 10 14 23 19 113 43 317 277 342 392 4 19 14 47 22 63 22 43 21
317 -1 370 -9 21 -16 47 -16 58 0 96 -208 352 -333 409 -12 5 -40 21 -62 34
-22 14 -51 30 -65 36 -79 37 -108 49 -122 49 -9 0 -21 6 -27 14 -7 8 -28 17
-49 21 -20 3 -46 12 -57 19 -11 8 -41 17 -65 21 -25 4 -54 13 -65 19 -11 7
-42 16 -70 21 -27 4 -61 13 -75 20 -14 7 -44 15 -68 19 -24 3 -53 13 -65 20
-12 8 -41 17 -64 21 -23 4 -47 13 -54 21 -6 8 -19 14 -28 14 -9 0 -27 7 -41
15 -14 7 -38 20 -55 28 -85 41 -145 151 -145 267 0 55 27 170 44 189 9 10 16
22 16 28 0 12 57 74 85 90 11 7 34 20 50 28 17 9 41 23 55 30 14 8 36 15 50
15 14 0 47 7 74 15 62 19 212 19 268 1 24 -8 61 -17 82 -21 22 -4 51 -15 64
-26 14 -10 30 -19 36 -19 49 0 205 -217 206 -287 1 -10 7 -29 15 -43 8 -15 14
-53 15 -93 0 -111 -13 -105 222 -100 121 3 208 10 216 16 16 13 9 78 -14 132
-8 19 -14 49 -14 67 0 18 -9 50 -20 71 -11 20 -20 47 -20 59 0 29 -90 210
-128 257 -15 20 -35 47 -44 61 -21 32 -41 53 -117 120 -59 52 -86 70 -158 104
-17 9 -34 20 -37 25 -4 5 -21 13 -39 16 -17 4 -45 13 -62 21 -92 42 -356 66
-475 43z"/>
<path d="M16570 4409 c-185 -35 -228 -48 -316 -90 -22 -10 -46 -19 -52 -19 -7
0 -12 -5 -12 -10 0 -6 -8 -14 -17 -17 -126 -47 -324 -291 -349 -431 -4 -20
-13 -49 -20 -64 -19 -38 -20 -308 0 -346 7 -15 16 -44 19 -66 3 -21 13 -46 20
-55 8 -9 18 -27 22 -41 9 -31 65 -102 124 -158 48 -45 187 -140 231 -158 8 -4
38 -17 67 -30 28 -13 60 -24 71 -24 11 0 25 -6 31 -14 7 -8 31 -17 54 -21 23
-4 51 -13 62 -20 11 -7 41 -16 65 -20 25 -4 56 -13 70 -20 14 -7 45 -16 70
-20 25 -4 54 -13 65 -19 11 -7 38 -16 60 -20 22 -4 49 -13 60 -20 11 -7 36
-16 56 -20 21 -3 42 -13 49 -21 7 -8 18 -15 26 -15 17 0 50 -15 99 -45 22 -13
50 -28 61 -34 42 -19 124 -121 124 -153 0 -8 7 -32 15 -51 19 -45 19 -127 2
-170 -8 -18 -17 -49 -21 -69 -4 -21 -11 -38 -17 -38 -5 0 -14 -11 -19 -24 -9
-25 -103 -106 -123 -106 -6 0 -18 -6 -26 -13 -58 -49 -444 -80 -511 -42 -14 8
-36 15 -50 15 -14 0 -36 7 -50 15 -14 8 -36 19 -49 25 -41 18 -142 103 -157
132 -8 15 -18 28 -23 28 -13 0 -90 161 -100 210 -6 25 -14 63 -20 85 -6 22
-11 61 -11 86 0 62 -11 69 -90 59 -36 -5 -123 -14 -195 -21 -145 -13 -162 -20
-145 -65 7 -16 18 -65 25 -109 30 -184 110 -361 230 -508 72 -88 203 -199 288
-242 32 -17 68 -36 80 -42 12 -7 30 -13 40 -13 10 0 28 -6 40 -14 12 -8 40
-17 62 -21 22 -3 60 -13 85 -22 64 -22 378 -22 435 0 22 9 62 18 90 22 27 4
58 13 69 21 11 8 27 14 36 14 8 0 38 12 65 25 28 14 56 25 63 25 6 0 12 5 12
10 0 6 11 15 25 20 121 46 309 269 345 407 6 23 14 45 19 47 27 17 21 293 -9
406 -43 161 -209 370 -342 431 -13 5 -41 21 -63 34 -22 14 -51 30 -65 36 -79
37 -108 49 -122 49 -9 0 -21 6 -27 14 -7 8 -28 17 -49 21 -20 3 -46 12 -57 19
-11 8 -41 17 -65 21 -25 4 -54 13 -65 19 -11 7 -42 16 -70 21 -27 4 -61 13
-75 20 -14 7 -44 15 -68 19 -24 3 -53 13 -65 20 -12 8 -41 17 -64 21 -23 4
-47 13 -54 21 -6 8 -19 14 -28 14 -9 0 -27 7 -41 15 -14 7 -38 20 -55 28 -85
41 -145 151 -145 267 0 55 27 170 44 189 9 10 16 22 16 28 0 12 57 74 85 90
11 7 34 20 50 28 17 9 41 23 55 30 14 8 36 15 50 15 14 0 47 7 74 15 62 19
212 19 268 1 24 -8 61 -17 82 -21 22 -4 51 -15 64 -26 14 -10 30 -19 36 -19
49 0 205 -217 206 -287 1 -10 7 -29 15 -43 8 -15 14 -53 15 -93 0 -111 -13
-105 222 -100 112 3 209 10 216 15 17 15 15 50 -8 115 -11 32 -20 71 -20 88 0
17 -9 48 -20 70 -11 22 -20 48 -20 60 0 26 -92 209 -128 254 -15 20 -35 47
-44 61 -21 32 -41 53 -117 120 -57 51 -81 67 -151 101 -14 7 -32 18 -40 24
-81 63 -429 113 -580 84z"/>
<path d="M243 4182 c-10 -6 -11 -36 -3 -133 12 -161 13 -2332 0 -2419 -6 -44
-6 -68 2 -77 8 -10 169 -13 819 -13 l809 0 0 124 c0 90 -3 125 -12 127 -7 2
-310 2 -673 -1 -363 -3 -666 -3 -674 -1 -11 3 -13 199 -10 1200 l4 1196 -125
3 c-69 1 -131 -2 -137 -6z"/>
<path d="M6980 4178 c0 -12 0 -2614 0 -2630 0 -14 250 -9 250 5 0 6 0 296 0
644 0 539 2 637 15 675 8 23 15 52 15 62 0 45 108 229 143 244 4 2 14 11 23
19 20 20 83 63 92 63 4 0 23 9 43 19 90 48 352 47 448 -1 141 -72 201 -187
241 -458 10 -67 11 -1004 1 -1150 -9 -137 -15 -131 133 -128 l121 3 -2 706
c-2 603 -5 711 -18 742 -8 20 -15 51 -15 68 0 18 -8 50 -19 73 -10 23 -24 52
-30 66 -18 39 -36 68 -54 88 -10 10 -17 23 -17 28 0 11 -95 104 -124 121 -11
7 -34 20 -51 28 -16 9 -41 23 -55 30 -14 8 -33 15 -43 15 -10 0 -32 8 -50 17
-46 25 -312 25 -377 1 -25 -9 -59 -19 -77 -23 -17 -3 -37 -13 -44 -21 -6 -8
-16 -14 -22 -14 -49 0 -237 -192 -237 -243 0 -7 -6 -21 -13 -31 -34 -47 -37
-4 -29 490 4 263 6 485 4 492 -3 9 -38 12 -128 12 -92 0 -124 -3 -124 -12z"/>
<path d="M3215 4157 l-25 -9 0 -158 c0 -186 -15 -170 156 -170 l124 0 -2 172
-3 172 -112 1 c-62 0 -124 -4 -138 -8z"/>
<path d="M5202 3982 c-10 -7 -9 -53 4 -237 12 -178 13 -230 3 -235 -6 -5 -158
-5 -336 -2 -258 4 -327 2 -333 -8 -4 -7 -6 -58 -5 -113 4 -121 8 -126 92 -117
32 4 128 8 213 9 85 1 193 6 240 10 88 8 124 2 131 -21 3 -7 2 -276 -2 -598
-6 -675 -1 -783 43 -879 43 -93 174 -211 235 -211 10 0 32 -8 48 -18 27 -15
65 -17 380 -17 l350 0 3 98 c4 145 37 132 -335 132 l-318 0 -52 30 c-29 17
-53 35 -53 41 0 6 -8 22 -19 35 -29 38 -30 61 -32 748 -2 699 -3 679 46 666
11 -3 182 -10 380 -15 425 -12 387 -24 383 125 l-3 100 -402 0 c-221 0 -404 3
-407 6 -3 3 -1 108 4 233 5 126 7 232 4 237 -7 11 -244 12 -262 1z"/>
<path d="M9814 3541 c-33 -4 -66 -11 -72 -15 -7 -4 -33 -13 -59 -21 -86 -24
-132 -44 -183 -80 -27 -19 -53 -35 -57 -35 -11 0 -183 -180 -183 -191 0 -5
-16 -31 -35 -59 -19 -27 -37 -61 -41 -77 -4 -15 -15 -44 -24 -63 -63 -126
-105 -448 -82 -620 27 -188 59 -315 89 -351 7 -8 13 -22 13 -30 0 -44 87 -169
185 -264 54 -53 86 -77 160 -123 43 -26 128 -62 163 -68 20 -4 50 -14 67 -22
47 -24 345 -23 403 1 23 9 54 17 68 17 15 0 45 9 68 21 22 12 59 30 81 41 95
48 269 202 295 261 6 12 24 44 41 72 47 75 75 155 58 166 -8 5 -69 9 -136 9
-133 0 -145 -6 -168 -78 -19 -64 -152 -212 -188 -212 -6 0 -18 -6 -26 -13 -92
-78 -451 -82 -571 -6 -8 5 -29 16 -46 24 -63 29 -190 173 -209 237 -4 12 -13
30 -20 38 -8 8 -16 29 -20 45 -4 17 -15 55 -25 85 -43 134 -31 243 24 224 22
-7 1391 -22 1414 -16 21 7 26 54 13 137 -7 44 -16 121 -21 170 -5 50 -16 107
-25 127 -8 21 -15 48 -15 60 0 13 -8 39 -19 58 -10 19 -21 49 -25 67 -4 17
-14 37 -22 44 -8 6 -14 17 -14 23 0 11 -15 34 -67 105 -23 30 -150 161 -157
161 -3 0 -32 18 -63 40 -32 22 -65 40 -73 40 -9 0 -25 6 -36 14 -11 8 -38 18
-60 22 -21 3 -51 13 -65 20 -32 16 -250 26 -335 15z m306 -256 c14 -7 43 -16
64 -20 21 -4 40 -13 43 -20 2 -7 15 -16 28 -19 31 -8 152 -128 171 -169 8 -18
18 -39 23 -47 26 -43 51 -104 60 -147 5 -26 17 -77 26 -112 11 -42 13 -67 6
-74 -10 -10 -1196 -15 -1206 -5 -9 9 16 151 30 173 7 11 16 36 20 55 4 19 13
42 20 50 7 8 16 26 20 40 19 63 136 193 209 233 21 12 48 28 60 34 11 7 29 13
39 13 10 0 28 5 40 12 51 29 294 30 347 3z"/>
<path d="M2460 3396 c0 -63 4 -117 9 -120 5 -3 174 -1 377 4 212 5 370 6 374
1 9 -16 5 -1511 -6 -1520 -5 -5 -49 -6 -104 -1 -52 4 -228 9 -390 11 l-295 4
-3 -117 -3 -118 868 0 c477 0 873 4 880 8 7 5 12 41 12 104 0 140 31 130 -364
117 -186 -5 -332 -6 -337 -1 -7 7 -9 1268 -4 1677 l1 60 -507 3 -508 2 0 -114z"/>
</g>
</svg>
